<svg xmlns="http://www.w3.org/2000/svg" xmlns:xlink="http://www.w3.org/1999/xlink" width="40" zoomAndPan="magnify" viewBox="0 0 30 30.000001" height="40" preserveAspectRatio="xMidYMid meet" version="1.0"><defs><clipPath id="06954d68ec"><path d="M 0.484375 0 L 29.515625 0 L 29.515625 29 L 0.484375 29 Z M 0.484375 0 " clip-rule="nonzero"/></clipPath><clipPath id="9f898332ae"><path d="M 0.484375 0 L 29.515625 0 L 29.515625 29.03125 L 0.484375 29.03125 Z M 0.484375 0 " clip-rule="nonzero"/></clipPath></defs><g clip-path="url(#06954d68ec)"><path fill="#ffffff" d="M 4.199219 3.714844 L 0.601562 3.714844 L 0.601562 0.117188 L 4.199219 0.117188 Z M 11.398438 0.117188 L 7.800781 0.117188 L 7.800781 3.714844 L 11.398438 3.714844 Z M 18.601562 0.117188 L 15 0.117188 L 15 3.714844 L 18.601562 3.714844 Z M 25.800781 0.117188 L 22.199219 0.117188 L 22.199219 3.714844 L 25.800781 3.714844 Z M 25.800781 7.316406 L 29.398438 7.316406 L 29.398438 3.714844 L 25.800781 3.714844 Z M 18.601562 7.316406 L 22.199219 7.316406 L 22.199219 3.714844 L 18.601562 3.714844 Z M 11.398438 7.316406 L 15 7.316406 L 15 3.714844 L 11.398438 3.714844 Z M 4.199219 7.316406 L 7.800781 7.316406 L 7.800781 3.714844 L 4.199219 3.714844 Z M 4.199219 7.316406 L 0.601562 7.316406 L 0.601562 10.917969 L 4.199219 10.917969 Z M 11.398438 7.316406 L 7.800781 7.316406 L 7.800781 10.917969 L 11.398438 10.917969 Z M 18.601562 7.316406 L 15 7.316406 L 15 10.917969 L 18.601562 10.917969 Z M 25.800781 7.316406 L 22.199219 7.316406 L 22.199219 10.917969 L 25.800781 10.917969 Z M 25.800781 14.515625 L 29.398438 14.515625 L 29.398438 10.917969 L 25.800781 10.917969 Z M 18.601562 14.515625 L 22.199219 14.515625 L 22.199219 10.917969 L 18.601562 10.917969 Z M 11.398438 14.515625 L 15 14.515625 L 15 10.917969 L 11.398438 10.917969 Z M 4.199219 14.515625 L 7.800781 14.515625 L 7.800781 10.917969 L 4.199219 10.917969 Z M 4.199219 14.515625 L 0.601562 14.515625 L 0.601562 18.117188 L 4.199219 18.117188 Z M 11.398438 14.515625 L 7.800781 14.515625 L 7.800781 18.117188 L 11.398438 18.117188 Z M 18.601562 14.515625 L 15 14.515625 L 15 18.117188 L 18.601562 18.117188 Z M 25.800781 14.515625 L 22.199219 14.515625 L 22.199219 18.117188 L 25.800781 18.117188 Z M 25.800781 21.714844 L 29.398438 21.714844 L 29.398438 18.117188 L 25.800781 18.117188 Z M 18.601562 21.714844 L 22.199219 21.714844 L 22.199219 18.117188 L 18.601562 18.117188 Z M 11.398438 21.714844 L 15 21.714844 L 15 18.117188 L 11.398438 18.117188 Z M 4.199219 21.714844 L 7.800781 21.714844 L 7.800781 18.117188 L 4.199219 18.117188 Z M 4.199219 21.714844 L 0.601562 21.714844 L 0.601562 25.316406 L 4.199219 25.316406 Z M 11.398438 21.714844 L 7.800781 21.714844 L 7.800781 25.316406 L 11.398438 25.316406 Z M 18.601562 21.714844 L 15 21.714844 L 15 25.316406 L 18.601562 25.316406 Z M 25.800781 21.714844 L 22.199219 21.714844 L 22.199219 25.316406 L 25.800781 25.316406 Z M 25.800781 28.917969 L 29.398438 28.917969 L 29.398438 25.316406 L 25.800781 25.316406 Z M 18.601562 28.917969 L 22.199219 28.917969 L 22.199219 25.316406 L 18.601562 25.316406 Z M 11.398438 28.917969 L 14.996094 28.917969 L 14.996094 25.316406 L 11.398438 25.316406 Z M 4.199219 28.917969 L 7.800781 28.917969 L 7.800781 25.316406 L 4.199219 25.316406 Z M 4.199219 28.917969 " fill-opacity="1" fill-rule="nonzero"/></g><g clip-path="url(#9f898332ae)"><path fill="#010101" d="M 0.484375 0 L 0.484375 29.03125 L 29.515625 29.03125 L 29.515625 0 Z M 29.398438 7.316406 L 25.800781 7.316406 L 25.800781 10.917969 L 29.398438 10.917969 L 29.398438 14.515625 L 25.800781 14.515625 L 25.800781 18.117188 L 29.398438 18.117188 L 29.398438 21.714844 L 25.800781 21.714844 L 25.800781 25.316406 L 29.398438 25.316406 L 29.398438 28.917969 L 25.800781 28.917969 L 25.800781 25.316406 L 22.199219 25.316406 L 22.199219 28.917969 L 18.601562 28.917969 L 18.601562 25.316406 L 15 25.316406 L 15 28.917969 L 11.398438 28.917969 L 11.398438 25.316406 L 7.800781 25.316406 L 7.800781 28.917969 L 4.199219 28.917969 L 4.199219 25.316406 L 0.601562 25.316406 L 0.601562 21.714844 L 4.199219 21.714844 L 4.199219 18.117188 L 0.601562 18.117188 L 0.601562 14.515625 L 4.199219 14.515625 L 4.199219 10.917969 L 0.601562 10.917969 L 0.601562 7.316406 L 4.199219 7.316406 L 4.199219 3.714844 L 0.601562 3.714844 L 0.601562 0.117188 L 4.199219 0.117188 L 4.199219 3.714844 L 7.800781 3.714844 L 7.800781 0.117188 L 11.398438 0.117188 L 11.398438 3.714844 L 15 3.714844 L 15 0.117188 L 18.601562 0.117188 L 18.601562 3.714844 L 22.199219 3.714844 L 22.199219 0.117188 L 25.800781 0.117188 L 25.800781 3.714844 L 29.398438 3.714844 Z M 25.800781 3.714844 L 25.800781 7.316406 L 22.199219 7.316406 L 22.199219 3.714844 Z M 15 7.316406 L 15 3.714844 L 18.601562 3.714844 L 18.601562 7.316406 Z M 7.800781 7.316406 L 7.800781 3.714844 L 11.398438 3.714844 L 11.398438 7.316406 Z M 7.800781 10.917969 L 4.199219 10.917969 L 4.199219 7.316406 L 7.800781 7.316406 Z M 11.398438 10.917969 L 11.398438 7.316406 L 15 7.316406 L 15 10.917969 Z M 18.601562 7.316406 L 22.199219 7.316406 L 22.199219 10.917969 L 18.601562 10.917969 Z M 22.199219 10.917969 L 25.800781 10.917969 L 25.800781 14.515625 L 22.199219 14.515625 Z M 15 10.917969 L 18.601562 10.917969 L 18.601562 14.515625 L 15 14.515625 Z M 11.398438 14.515625 L 7.800781 14.515625 L 7.800781 10.917969 L 11.398438 10.917969 Z M 7.800781 18.117188 L 4.199219 18.117188 L 4.199219 14.515625 L 7.800781 14.515625 Z M 15 14.515625 L 15 18.117188 L 11.398438 18.117188 L 11.398438 14.515625 Z M 18.601562 14.515625 L 22.199219 14.515625 L 22.199219 18.117188 L 18.601562 18.117188 Z M 22.199219 18.117188 L 25.800781 18.117188 L 25.800781 21.714844 L 22.199219 21.714844 Z M 18.601562 18.117188 L 18.601562 21.714844 L 15 21.714844 L 15 18.117188 Z M 11.398438 18.117188 L 11.398438 21.714844 L 7.800781 21.714844 L 7.800781 18.117188 Z M 7.800781 21.714844 L 7.800781 25.316406 L 4.199219 25.316406 L 4.199219 21.714844 Z M 15 21.714844 L 15 25.316406 L 11.398438 25.316406 L 11.398438 21.714844 Z M 22.199219 21.714844 L 22.199219 25.316406 L 18.601562 25.316406 L 18.601562 21.714844 Z M 22.199219 21.714844 " fill-opacity="1" fill-rule="nonzero"/></g></svg>