<svg xmlns="http://www.w3.org/2000/svg" xmlns:xlink="http://www.w3.org/1999/xlink" width="130" zoomAndPan="magnify" viewBox="0 0 97.5 38.249999" height="51" preserveAspectRatio="xMidYMid meet" version="1.0"><defs><g/></defs><g fill="#000000" fill-opacity="1"><g transform="translate(27.340922, 21.525832)"><g><path d="M 16.21875 0.25 C 16.226562 0.25 16.238281 0.25 16.25 0.25 C 16.28125 0.25 16.304688 0.25 16.328125 0.25 C 16.347656 0.257812 16.367188 0.273438 16.390625 0.296875 C 16.398438 0.304688 16.40625 0.3125 16.40625 0.3125 C 16.414062 0.320312 16.421875 0.332031 16.421875 0.34375 C 16.410156 0.351562 16.398438 0.363281 16.390625 0.375 C 16.390625 0.382812 16.390625 0.390625 16.390625 0.390625 C 16.359375 0.398438 16.328125 0.398438 16.296875 0.390625 C 16.285156 0.390625 16.269531 0.390625 16.25 0.390625 C 16.070312 0.378906 15.894531 0.367188 15.71875 0.359375 C 15.394531 0.335938 15.078125 0.316406 14.765625 0.296875 C 13.429688 0.210938 12.117188 0.164062 10.828125 0.15625 C 9.535156 0.144531 8.222656 0.160156 6.890625 0.203125 C 6.742188 0.210938 6.601562 0.222656 6.46875 0.234375 C 6.332031 0.242188 6.195312 0.25 6.0625 0.25 C 5.9375 0.257812 5.835938 0.316406 5.765625 0.421875 C 5.429688 0.859375 5.070312 1.273438 4.6875 1.671875 C 4.414062 1.941406 4.132812 2.1875 3.84375 2.40625 C 3.550781 2.632812 3.242188 2.8125 2.921875 2.9375 C 2.597656 3.070312 2.257812 3.132812 1.90625 3.125 C 1.550781 3.125 1.1875 3.039062 0.8125 2.875 C 0.625 2.789062 0.460938 2.675781 0.328125 2.53125 C 0.109375 2.28125 0.0859375 2.007812 0.265625 1.71875 C 0.378906 1.53125 0.535156 1.378906 0.734375 1.265625 C 1.023438 1.066406 1.363281 0.898438 1.75 0.765625 C 2.132812 0.628906 2.539062 0.519531 2.96875 0.4375 C 3.40625 0.351562 3.832031 0.285156 4.25 0.234375 C 4.664062 0.191406 5.046875 0.160156 5.390625 0.140625 C 5.535156 0.117188 5.644531 0.0546875 5.71875 -0.046875 C 6 -0.460938 6.300781 -0.945312 6.625 -1.5 C 6.945312 -2.050781 7.253906 -2.628906 7.546875 -3.234375 C 7.847656 -3.835938 8.101562 -4.425781 8.3125 -5 C 8.53125 -5.582031 8.675781 -6.101562 8.75 -6.5625 C 8.769531 -6.707031 8.765625 -6.847656 8.734375 -6.984375 C 8.671875 -7.210938 8.53125 -7.34375 8.3125 -7.375 C 8.28125 -7.375 8.25 -7.375 8.21875 -7.375 C 8.15625 -7.375 8.09375 -7.367188 8.03125 -7.359375 C 7.738281 -7.296875 7.378906 -7.160156 6.953125 -6.953125 C 6.535156 -6.753906 6.09375 -6.503906 5.625 -6.203125 C 5.15625 -5.898438 4.707031 -5.566406 4.28125 -5.203125 C 3.851562 -4.847656 3.492188 -4.484375 3.203125 -4.109375 C 2.910156 -3.742188 2.722656 -3.390625 2.640625 -3.046875 C 2.578125 -2.742188 2.679688 -2.523438 2.953125 -2.390625 C 3.171875 -2.296875 3.40625 -2.253906 3.65625 -2.265625 C 3.90625 -2.273438 4.144531 -2.300781 4.375 -2.34375 C 4.519531 -2.375 4.660156 -2.390625 4.796875 -2.390625 C 4.859375 -2.390625 4.914062 -2.390625 4.96875 -2.390625 C 4.976562 -2.390625 4.988281 -2.382812 5 -2.375 C 5.019531 -2.363281 5.023438 -2.347656 5.015625 -2.328125 C 5.015625 -2.285156 5 -2.265625 4.96875 -2.265625 C 4.769531 -2.253906 4.570312 -2.226562 4.375 -2.1875 C 4.144531 -2.144531 3.910156 -2.117188 3.671875 -2.109375 C 3.429688 -2.097656 3.191406 -2.125 2.953125 -2.1875 C 2.835938 -2.21875 2.726562 -2.265625 2.625 -2.328125 C 2.375 -2.492188 2.273438 -2.722656 2.328125 -3.015625 C 2.390625 -3.378906 2.578125 -3.757812 2.890625 -4.15625 C 3.203125 -4.5625 3.582031 -4.953125 4.03125 -5.328125 C 4.476562 -5.710938 4.953125 -6.0625 5.453125 -6.375 C 5.953125 -6.6875 6.425781 -6.945312 6.875 -7.15625 C 7.332031 -7.363281 7.71875 -7.488281 8.03125 -7.53125 C 8.101562 -7.550781 8.175781 -7.554688 8.25 -7.546875 C 8.382812 -7.554688 8.515625 -7.539062 8.640625 -7.5 C 8.867188 -7.425781 9.015625 -7.269531 9.078125 -7.03125 C 9.128906 -6.769531 9.097656 -6.421875 8.984375 -5.984375 C 8.867188 -5.546875 8.695312 -5.050781 8.46875 -4.5 C 8.25 -3.957031 8 -3.410156 7.71875 -2.859375 C 7.445312 -2.316406 7.179688 -1.816406 6.921875 -1.359375 C 6.660156 -0.898438 6.4375 -0.53125 6.25 -0.25 C 6.195312 -0.175781 6.144531 -0.0976562 6.09375 -0.015625 C 6.082031 0.00390625 6.082031 0.0195312 6.09375 0.03125 C 6.101562 0.0507812 6.117188 0.0625 6.140625 0.0625 L 6.15625 0.0625 C 6.21875 0.0625 6.28125 0.0625 6.34375 0.0625 C 6.53125 0.0507812 6.71875 0.0390625 6.90625 0.03125 C 7.289062 0.0078125 7.679688 -0.00390625 8.078125 -0.015625 C 10.796875 -0.0859375 13.507812 0 16.21875 0.25 Z M 5.140625 0.703125 C 5.160156 0.679688 5.179688 0.660156 5.203125 0.640625 C 5.234375 0.597656 5.265625 0.550781 5.296875 0.5 C 5.335938 0.445312 5.375 0.390625 5.40625 0.328125 C 5.375 0.328125 5.34375 0.328125 5.3125 0.328125 C 5.300781 0.328125 5.289062 0.328125 5.28125 0.328125 C 5.269531 0.328125 5.253906 0.328125 5.234375 0.328125 C 5.117188 0.335938 5.003906 0.351562 4.890625 0.375 C 4.742188 0.382812 4.597656 0.398438 4.453125 0.421875 C 4.109375 0.453125 3.710938 0.507812 3.265625 0.59375 C 2.816406 0.675781 2.378906 0.785156 1.953125 0.921875 C 1.523438 1.066406 1.171875 1.25 0.890625 1.46875 C 0.796875 1.539062 0.710938 1.625 0.640625 1.71875 C 0.398438 2.007812 0.421875 2.273438 0.703125 2.515625 C 1.023438 2.773438 1.351562 2.914062 1.6875 2.9375 C 2.03125 2.96875 2.367188 2.910156 2.703125 2.765625 C 3.035156 2.617188 3.351562 2.425781 3.65625 2.1875 C 3.957031 1.945312 4.234375 1.691406 4.484375 1.421875 C 4.742188 1.160156 4.960938 0.921875 5.140625 0.703125 Z M 5.140625 0.703125 "/></g></g></g><g fill="#000000" fill-opacity="1"><g transform="translate(35.923456, 21.525832)"><g><path d="M 0.0625 -0.421875 C -0.09375 -0.421875 -0.171875 -0.5 -0.171875 -0.65625 C -0.171875 -0.851562 -0.046875 -1.191406 0.203125 -1.671875 C 0.210938 -1.691406 0.234375 -1.703125 0.265625 -1.703125 C 0.359375 -1.703125 0.40625 -1.664062 0.40625 -1.59375 C 0.40625 -1.5625 0.398438 -1.523438 0.390625 -1.484375 C 0.378906 -1.472656 0.296875 -1.265625 0.140625 -0.859375 C 0.109375 -0.785156 0.09375 -0.734375 0.09375 -0.703125 C 0.09375 -0.671875 0.109375 -0.65625 0.140625 -0.65625 C 0.253906 -0.65625 0.5625 -0.941406 1.0625 -1.515625 C 1.125 -1.597656 1.1875 -1.640625 1.25 -1.640625 C 1.332031 -1.640625 1.375 -1.601562 1.375 -1.53125 C 1.375 -1.507812 1.347656 -1.414062 1.296875 -1.25 C 1.222656 -1.019531 1.1875 -0.890625 1.1875 -0.859375 C 1.1875 -0.804688 1.203125 -0.78125 1.234375 -0.78125 C 1.328125 -0.78125 1.582031 -0.9375 2 -1.25 C 2.03125 -1.269531 2.050781 -1.28125 2.0625 -1.28125 C 2.101562 -1.28125 2.125 -1.242188 2.125 -1.171875 C 2.125 -1.160156 2.117188 -1.144531 2.109375 -1.125 C 1.878906 -0.9375 1.6875 -0.789062 1.53125 -0.6875 C 1.394531 -0.59375 1.269531 -0.546875 1.15625 -0.546875 L 1.125 -0.546875 C 0.957031 -0.585938 0.875 -0.71875 0.875 -0.9375 C 0.695312 -0.78125 0.550781 -0.65625 0.4375 -0.5625 C 0.320312 -0.46875 0.195312 -0.421875 0.0625 -0.421875 Z M 0.0625 -0.421875 "/></g></g></g><g fill="#000000" fill-opacity="1"><g transform="translate(38.618402, 21.525832)"><g><path d="M 1.15625 -1.140625 C 1.207031 -1.191406 1.25 -1.21875 1.28125 -1.21875 C 1.320312 -1.226562 1.347656 -1.222656 1.359375 -1.203125 C 1.367188 -1.191406 1.359375 -1.171875 1.328125 -1.140625 C 1.191406 -0.972656 1.035156 -0.828125 0.859375 -0.703125 C 0.691406 -0.578125 0.515625 -0.503906 0.328125 -0.484375 C 0.140625 -0.460938 0.03125 -0.566406 0 -0.796875 C -0.03125 -1.015625 0.0976562 -1.457031 0.390625 -2.125 C 0.679688 -2.789062 0.914062 -3.335938 1.09375 -3.765625 C 1.101562 -3.804688 1.125 -3.84375 1.15625 -3.875 C 1.1875 -3.90625 1.226562 -3.910156 1.28125 -3.890625 C 1.300781 -3.890625 1.316406 -3.878906 1.328125 -3.859375 C 1.347656 -3.835938 1.359375 -3.804688 1.359375 -3.765625 C 0.609375 -1.984375 0.242188 -1.015625 0.265625 -0.859375 C 0.285156 -0.703125 0.382812 -0.660156 0.5625 -0.734375 C 0.738281 -0.816406 0.875 -0.894531 0.96875 -0.96875 C 1.070312 -1.050781 1.132812 -1.109375 1.15625 -1.140625 Z M 1.15625 -1.140625 "/></g></g></g><g fill="#000000" fill-opacity="1"><g transform="translate(40.542496, 21.525832)"><g><path d="M 0.953125 -1 C 0.867188 -0.90625 0.765625 -0.816406 0.640625 -0.734375 C 0.523438 -0.648438 0.394531 -0.59375 0.25 -0.5625 C 0.101562 -0.53125 -0.00390625 -0.539062 -0.078125 -0.59375 C -0.160156 -0.644531 -0.179688 -0.753906 -0.140625 -0.921875 C -0.078125 -1.109375 0.0078125 -1.285156 0.125 -1.453125 C 0.15625 -1.484375 0.191406 -1.503906 0.234375 -1.515625 C 0.265625 -1.523438 0.296875 -1.519531 0.328125 -1.5 C 0.359375 -1.476562 0.367188 -1.453125 0.359375 -1.421875 C 0.335938 -1.367188 0.3125 -1.3125 0.28125 -1.25 C 0.25 -1.195312 0.226562 -1.160156 0.21875 -1.140625 C 0.164062 -1.035156 0.128906 -0.929688 0.109375 -0.828125 C 0.109375 -0.765625 0.191406 -0.757812 0.359375 -0.8125 C 0.523438 -0.863281 0.6875 -0.960938 0.84375 -1.109375 C 1.007812 -1.265625 1.085938 -1.3125 1.078125 -1.25 C 1.078125 -1.1875 1.035156 -1.101562 0.953125 -1 Z M 0.53125 -1.8125 C 0.519531 -1.800781 0.503906 -1.789062 0.484375 -1.78125 C 0.460938 -1.769531 0.4375 -1.757812 0.40625 -1.75 C 0.375 -1.75 0.347656 -1.753906 0.328125 -1.765625 C 0.316406 -1.785156 0.320312 -1.816406 0.34375 -1.859375 C 0.363281 -1.921875 0.382812 -1.976562 0.40625 -2.03125 C 0.4375 -2.082031 0.476562 -2.132812 0.53125 -2.1875 C 0.550781 -2.21875 0.578125 -2.234375 0.609375 -2.234375 C 0.648438 -2.242188 0.679688 -2.238281 0.703125 -2.21875 C 0.722656 -2.195312 0.726562 -2.164062 0.71875 -2.125 C 0.6875 -2 0.625 -1.894531 0.53125 -1.8125 Z M 0.53125 -1.8125 "/></g></g></g><g fill="#000000" fill-opacity="1"><g transform="translate(42.206458, 21.525832)"><g><path d="M 0.375 -0.5625 C 0.144531 -0.570312 -0.00390625 -0.625 -0.078125 -0.71875 C -0.148438 -0.820312 -0.148438 -0.957031 -0.078125 -1.125 C -0.00390625 -1.25 0.078125 -1.359375 0.171875 -1.453125 C 0.210938 -1.484375 0.25 -1.503906 0.28125 -1.515625 C 0.320312 -1.535156 0.363281 -1.546875 0.40625 -1.546875 C 0.4375 -1.554688 0.46875 -1.550781 0.5 -1.53125 C 0.507812 -1.53125 0.519531 -1.53125 0.53125 -1.53125 C 0.5625 -1.53125 0.585938 -1.535156 0.609375 -1.546875 C 0.617188 -1.554688 0.628906 -1.5625 0.640625 -1.5625 C 0.691406 -1.582031 0.75 -1.59375 0.8125 -1.59375 C 0.832031 -1.59375 0.859375 -1.59375 0.890625 -1.59375 C 0.984375 -1.570312 1.050781 -1.53125 1.09375 -1.46875 C 1.144531 -1.40625 1.160156 -1.328125 1.140625 -1.234375 C 1.140625 -1.179688 1.125 -1.128906 1.09375 -1.078125 C 0.90625 -0.753906 0.671875 -0.582031 0.390625 -0.5625 Z M 0.75 -1.421875 C 0.625 -1.421875 0.515625 -1.382812 0.421875 -1.3125 C 0.328125 -1.238281 0.253906 -1.148438 0.203125 -1.046875 C 0.148438 -0.941406 0.132812 -0.859375 0.15625 -0.796875 C 0.1875 -0.734375 0.253906 -0.71875 0.359375 -0.75 C 0.484375 -0.78125 0.59375 -0.847656 0.6875 -0.953125 C 0.789062 -1.066406 0.851562 -1.171875 0.875 -1.265625 C 0.894531 -1.359375 0.851562 -1.410156 0.75 -1.421875 Z M 0.75 -1.421875 "/></g></g></g><g fill="#000000" fill-opacity="1"><g transform="translate(44.206922, 21.525832)"><g/></g></g><g fill="#000000" fill-opacity="1"><g transform="translate(46.744356, 21.525832)"><g><path d="M 11.59375 2.640625 C 11.601562 2.648438 11.609375 2.660156 11.609375 2.671875 C 11.617188 2.679688 11.613281 2.691406 11.59375 2.703125 C 10.96875 3.140625 10.316406 3.476562 9.640625 3.71875 C 8.972656 3.96875 8.289062 4.09375 7.59375 4.09375 C 6.894531 4.09375 6.195312 3.941406 5.5 3.640625 C 4.539062 3.222656 3.734375 2.625 3.078125 1.84375 C 3.066406 1.820312 3.0625 1.804688 3.0625 1.796875 C 3.050781 1.785156 3.039062 1.773438 3.03125 1.765625 C 3 1.734375 2.972656 1.707031 2.953125 1.6875 C 2.929688 1.664062 2.910156 1.65625 2.890625 1.65625 C 2.859375 1.65625 2.8125 1.671875 2.75 1.703125 C 2.539062 1.804688 2.3125 1.890625 2.0625 1.953125 C 1.8125 2.015625 1.5625 2.046875 1.3125 2.046875 C 1.070312 2.046875 0.847656 1.992188 0.640625 1.890625 C 0.429688 1.785156 0.257812 1.617188 0.125 1.390625 C 0.0078125 1.203125 -0.0664062 1 -0.109375 0.78125 C -0.160156 0.570312 -0.1875 0.359375 -0.1875 0.140625 C -0.207031 -0.484375 -0.113281 -1.09375 0.09375 -1.6875 C 0.101562 -1.707031 0.113281 -1.734375 0.125 -1.765625 C 0.132812 -1.796875 0.144531 -1.828125 0.15625 -1.859375 C 0.175781 -1.921875 0.160156 -1.96875 0.109375 -2 C 0.0976562 -2 0.0820312 -2.003906 0.0625 -2.015625 C 0.0195312 -2.046875 -0.0195312 -2.078125 -0.0625 -2.109375 C -0.53125 -2.421875 -0.75 -2.867188 -0.71875 -3.453125 C -0.6875 -3.828125 -0.550781 -4.207031 -0.3125 -4.59375 C -0.0820312 -4.976562 0.21875 -5.34375 0.59375 -5.6875 C 0.976562 -6.03125 1.398438 -6.332031 1.859375 -6.59375 C 2.328125 -6.863281 2.804688 -7.078125 3.296875 -7.234375 C 3.785156 -7.390625 4.253906 -7.46875 4.703125 -7.46875 C 5.148438 -7.476562 5.550781 -7.390625 5.90625 -7.203125 C 6.269531 -7.023438 6.546875 -6.734375 6.734375 -6.328125 C 6.929688 -5.898438 7.023438 -5.445312 7.015625 -4.96875 C 7.015625 -4.90625 7.015625 -4.84375 7.015625 -4.78125 C 7.015625 -4.757812 7.015625 -4.734375 7.015625 -4.703125 C 6.992188 -4.265625 6.929688 -3.835938 6.828125 -3.421875 C 6.722656 -3.015625 6.582031 -2.609375 6.40625 -2.203125 C 6.070312 -1.460938 5.648438 -0.789062 5.140625 -0.1875 C 4.628906 0.40625 4.035156 0.925781 3.359375 1.375 C 3.347656 1.375 3.335938 1.375 3.328125 1.375 C 3.304688 1.394531 3.28125 1.414062 3.25 1.4375 C 3.207031 1.476562 3.207031 1.519531 3.25 1.5625 C 3.25 1.570312 3.253906 1.582031 3.265625 1.59375 C 3.265625 1.601562 3.269531 1.609375 3.28125 1.609375 C 3.832031 2.304688 4.460938 2.847656 5.171875 3.234375 C 5.890625 3.628906 6.648438 3.847656 7.453125 3.890625 C 8.253906 3.941406 9.078125 3.796875 9.921875 3.453125 C 10.347656 3.273438 10.753906 3.050781 11.140625 2.78125 C 11.222656 2.71875 11.304688 2.664062 11.390625 2.625 C 11.421875 2.601562 11.453125 2.59375 11.484375 2.59375 C 11.515625 2.59375 11.550781 2.609375 11.59375 2.640625 Z M 3.0625 1.296875 C 3.082031 1.296875 3.101562 1.285156 3.125 1.265625 C 3.15625 1.242188 3.1875 1.222656 3.21875 1.203125 C 3.320312 1.128906 3.425781 1.054688 3.53125 0.984375 C 4.75 0.0664062 5.644531 -1.09375 6.21875 -2.5 C 6.363281 -2.84375 6.476562 -3.203125 6.5625 -3.578125 C 6.644531 -3.960938 6.703125 -4.375 6.734375 -4.8125 C 6.734375 -4.96875 6.71875 -5.179688 6.6875 -5.453125 C 6.632812 -5.796875 6.523438 -6.117188 6.359375 -6.421875 C 6.160156 -6.742188 5.898438 -6.972656 5.578125 -7.109375 C 5.253906 -7.242188 4.890625 -7.296875 4.484375 -7.265625 C 4.078125 -7.242188 3.65625 -7.15625 3.21875 -7 C 2.78125 -6.84375 2.351562 -6.640625 1.9375 -6.390625 C 1.53125 -6.140625 1.15625 -5.859375 0.8125 -5.546875 C 0.476562 -5.234375 0.207031 -4.90625 0 -4.5625 C -0.21875 -4.21875 -0.351562 -3.875 -0.40625 -3.53125 C -0.457031 -2.976562 -0.257812 -2.546875 0.1875 -2.234375 C 0.21875 -2.203125 0.242188 -2.1875 0.265625 -2.1875 C 0.285156 -2.195312 0.3125 -2.222656 0.34375 -2.265625 C 0.363281 -2.304688 0.390625 -2.347656 0.421875 -2.390625 C 0.453125 -2.453125 0.488281 -2.515625 0.53125 -2.578125 C 0.570312 -2.628906 0.625 -2.65625 0.6875 -2.65625 C 0.695312 -2.65625 0.703125 -2.65625 0.703125 -2.65625 L 0.71875 -2.65625 C 0.738281 -2.65625 0.757812 -2.644531 0.78125 -2.625 C 0.800781 -2.613281 0.804688 -2.59375 0.796875 -2.5625 C 0.765625 -2.507812 0.734375 -2.457031 0.703125 -2.40625 C 0.660156 -2.332031 0.625 -2.257812 0.59375 -2.1875 C 0.53125 -2.09375 0.550781 -2.03125 0.65625 -2 C 0.976562 -1.90625 1.289062 -1.882812 1.59375 -1.9375 C 1.894531 -2 2.171875 -2.125 2.421875 -2.3125 C 2.671875 -2.5 2.875 -2.726562 3.03125 -3 C 3.1875 -3.28125 3.273438 -3.59375 3.296875 -3.9375 C 3.316406 -4.25 3.265625 -4.550781 3.140625 -4.84375 C 3.140625 -4.863281 3.140625 -4.878906 3.140625 -4.890625 C 3.140625 -4.910156 3.140625 -4.925781 3.140625 -4.9375 C 3.171875 -4.957031 3.203125 -4.96875 3.234375 -4.96875 C 3.253906 -4.96875 3.269531 -4.96875 3.28125 -4.96875 C 3.34375 -4.945312 3.382812 -4.90625 3.40625 -4.84375 C 3.476562 -4.664062 3.523438 -4.484375 3.546875 -4.296875 C 3.585938 -3.910156 3.535156 -3.546875 3.390625 -3.203125 C 3.253906 -2.859375 3.046875 -2.5625 2.765625 -2.3125 C 2.492188 -2.070312 2.164062 -1.90625 1.78125 -1.8125 C 1.382812 -1.71875 0.988281 -1.71875 0.59375 -1.8125 C 0.550781 -1.820312 0.515625 -1.828125 0.484375 -1.828125 C 0.460938 -1.828125 0.441406 -1.816406 0.421875 -1.796875 C 0.410156 -1.773438 0.394531 -1.742188 0.375 -1.703125 C 0.269531 -1.398438 0.191406 -1.085938 0.140625 -0.765625 C 0.0859375 -0.453125 0.0703125 -0.132812 0.09375 0.1875 C 0.09375 0.539062 0.164062 0.875 0.3125 1.1875 C 0.425781 1.4375 0.578125 1.613281 0.765625 1.71875 C 0.953125 1.832031 1.15625 1.890625 1.375 1.890625 C 1.59375 1.898438 1.816406 1.863281 2.046875 1.78125 C 2.273438 1.707031 2.492188 1.617188 2.703125 1.515625 C 2.753906 1.484375 2.765625 1.4375 2.734375 1.375 C 2.691406 1.320312 2.65625 1.269531 2.625 1.21875 C 2.53125 1.09375 2.441406 0.960938 2.359375 0.828125 C 2.203125 0.585938 2.078125 0.332031 1.984375 0.0625 C 1.953125 -0.0078125 1.925781 -0.078125 1.90625 -0.140625 C 1.894531 -0.210938 1.890625 -0.285156 1.890625 -0.359375 C 1.890625 -0.410156 1.894531 -0.460938 1.90625 -0.515625 C 1.914062 -0.535156 1.9375 -0.554688 1.96875 -0.578125 C 2 -0.597656 2.03125 -0.609375 2.0625 -0.609375 C 2.082031 -0.609375 2.097656 -0.601562 2.109375 -0.59375 C 2.140625 -0.59375 2.15625 -0.578125 2.15625 -0.546875 C 2.164062 -0.523438 2.171875 -0.503906 2.171875 -0.484375 C 2.171875 -0.335938 2.195312 -0.195312 2.25 -0.0625 C 2.332031 0.175781 2.4375 0.398438 2.5625 0.609375 C 2.695312 0.828125 2.835938 1.035156 2.984375 1.234375 C 3.003906 1.265625 3.03125 1.285156 3.0625 1.296875 Z M 3.0625 1.296875 "/></g></g></g><g fill="#000000" fill-opacity="1"><g transform="translate(53.995201, 21.525832)"><g><path d="M 0.0625 -0.421875 C -0.09375 -0.421875 -0.171875 -0.5 -0.171875 -0.65625 C -0.171875 -0.851562 -0.046875 -1.191406 0.203125 -1.671875 C 0.210938 -1.691406 0.234375 -1.703125 0.265625 -1.703125 C 0.359375 -1.703125 0.40625 -1.664062 0.40625 -1.59375 C 0.40625 -1.5625 0.398438 -1.523438 0.390625 -1.484375 C 0.378906 -1.472656 0.296875 -1.265625 0.140625 -0.859375 C 0.109375 -0.785156 0.09375 -0.734375 0.09375 -0.703125 C 0.09375 -0.671875 0.109375 -0.65625 0.140625 -0.65625 C 0.253906 -0.65625 0.5625 -0.941406 1.0625 -1.515625 C 1.125 -1.597656 1.1875 -1.640625 1.25 -1.640625 C 1.332031 -1.640625 1.375 -1.601562 1.375 -1.53125 C 1.375 -1.507812 1.347656 -1.414062 1.296875 -1.25 C 1.222656 -1.019531 1.1875 -0.890625 1.1875 -0.859375 C 1.1875 -0.804688 1.203125 -0.78125 1.234375 -0.78125 C 1.328125 -0.78125 1.582031 -0.9375 2 -1.25 C 2.03125 -1.269531 2.050781 -1.28125 2.0625 -1.28125 C 2.101562 -1.28125 2.125 -1.242188 2.125 -1.171875 C 2.125 -1.160156 2.117188 -1.144531 2.109375 -1.125 C 1.878906 -0.9375 1.6875 -0.789062 1.53125 -0.6875 C 1.394531 -0.59375 1.269531 -0.546875 1.15625 -0.546875 L 1.125 -0.546875 C 0.957031 -0.585938 0.875 -0.71875 0.875 -0.9375 C 0.695312 -0.78125 0.550781 -0.65625 0.4375 -0.5625 C 0.320312 -0.46875 0.195312 -0.421875 0.0625 -0.421875 Z M 0.0625 -0.421875 "/></g></g></g><g fill="#000000" fill-opacity="1"><g transform="translate(56.690148, 21.525832)"><g><path d="M 1.359375 -0.90625 C 1.265625 -0.820312 1.15625 -0.75 1.03125 -0.6875 C 0.914062 -0.625 0.816406 -0.582031 0.734375 -0.5625 C 0.648438 -0.539062 0.5625 -0.523438 0.46875 -0.515625 C 0.332031 -0.515625 0.207031 -0.535156 0.09375 -0.578125 C -0.101562 -0.660156 -0.171875 -0.8125 -0.109375 -1.03125 C -0.0546875 -1.21875 0.0507812 -1.363281 0.21875 -1.46875 C 0.394531 -1.570312 0.570312 -1.625 0.75 -1.625 C 0.75 -1.625 0.753906 -1.625 0.765625 -1.625 C 0.804688 -1.625 0.847656 -1.617188 0.890625 -1.609375 C 0.960938 -1.585938 1.003906 -1.546875 1.015625 -1.484375 C 1.035156 -1.429688 1.023438 -1.367188 0.984375 -1.296875 C 0.878906 -1.140625 0.742188 -1.054688 0.578125 -1.046875 C 0.453125 -1.035156 0.335938 -1.039062 0.234375 -1.0625 C 0.210938 -1.0625 0.191406 -1.050781 0.171875 -1.03125 C 0.160156 -1.019531 0.15625 -1.003906 0.15625 -0.984375 C 0.125 -0.847656 0.164062 -0.765625 0.28125 -0.734375 C 0.414062 -0.679688 0.5625 -0.679688 0.71875 -0.734375 C 0.894531 -0.785156 1.0625 -0.890625 1.21875 -1.046875 C 1.382812 -1.203125 1.476562 -1.273438 1.5 -1.265625 C 1.53125 -1.253906 1.539062 -1.222656 1.53125 -1.171875 C 1.507812 -1.085938 1.453125 -1 1.359375 -0.90625 Z M 0.34375 -1.296875 C 0.332031 -1.285156 0.320312 -1.273438 0.3125 -1.265625 C 0.3125 -1.253906 0.320312 -1.242188 0.34375 -1.234375 C 0.394531 -1.191406 0.453125 -1.175781 0.515625 -1.1875 C 0.585938 -1.195312 0.644531 -1.222656 0.6875 -1.265625 C 0.726562 -1.304688 0.75 -1.359375 0.75 -1.421875 C 0.738281 -1.441406 0.722656 -1.453125 0.703125 -1.453125 C 0.691406 -1.460938 0.675781 -1.460938 0.65625 -1.453125 C 0.539062 -1.429688 0.4375 -1.378906 0.34375 -1.296875 Z M 0.34375 -1.296875 "/></g></g></g><g fill="#000000" fill-opacity="1"><g transform="translate(58.812325, 21.525832)"><g><path d="M 0.359375 -0.953125 C 0.296875 -0.910156 0.265625 -0.878906 0.265625 -0.859375 C 0.265625 -0.847656 0.28125 -0.835938 0.3125 -0.828125 C 0.351562 -0.828125 0.398438 -0.828125 0.453125 -0.828125 C 0.460938 -0.828125 0.472656 -0.828125 0.484375 -0.828125 C 0.640625 -0.828125 0.785156 -0.804688 0.921875 -0.765625 C 0.960938 -0.753906 1.003906 -0.738281 1.046875 -0.71875 C 1.046875 -0.707031 1.046875 -0.703125 1.046875 -0.703125 C 1.054688 -0.703125 1.0625 -0.695312 1.0625 -0.6875 C 1.070312 -0.675781 1.070312 -0.664062 1.0625 -0.65625 C 1.0625 -0.65625 1.054688 -0.648438 1.046875 -0.640625 C 1.035156 -0.640625 1.03125 -0.632812 1.03125 -0.625 C 1 -0.625 0.972656 -0.625 0.953125 -0.625 C 0.648438 -0.65625 0.351562 -0.671875 0.0625 -0.671875 C 0.0078125 -0.671875 -0.046875 -0.671875 -0.109375 -0.671875 C -0.128906 -0.671875 -0.148438 -0.671875 -0.171875 -0.671875 C -0.210938 -0.660156 -0.25 -0.660156 -0.28125 -0.671875 C -0.320312 -0.679688 -0.347656 -0.707031 -0.359375 -0.75 C -0.359375 -0.78125 -0.34375 -0.800781 -0.3125 -0.8125 C -0.289062 -0.832031 -0.265625 -0.847656 -0.234375 -0.859375 C -0.210938 -0.867188 -0.191406 -0.878906 -0.171875 -0.890625 C 0.078125 -1.035156 0.316406 -1.191406 0.546875 -1.359375 C 0.640625 -1.421875 0.722656 -1.5 0.796875 -1.59375 C 0.816406 -1.613281 0.820312 -1.632812 0.8125 -1.65625 C 0.800781 -1.6875 0.773438 -1.703125 0.734375 -1.703125 C 0.628906 -1.710938 0.523438 -1.703125 0.421875 -1.671875 C 0.347656 -1.648438 0.269531 -1.632812 0.1875 -1.625 C 0.15625 -1.613281 0.125 -1.625 0.09375 -1.65625 C 0.0820312 -1.675781 0.0820312 -1.695312 0.09375 -1.71875 C 0.101562 -1.738281 0.125 -1.753906 0.15625 -1.765625 C 0.382812 -1.859375 0.625 -1.890625 0.875 -1.859375 C 0.925781 -1.847656 0.976562 -1.832031 1.03125 -1.8125 C 1.132812 -1.757812 1.160156 -1.679688 1.109375 -1.578125 C 1.054688 -1.472656 0.972656 -1.382812 0.859375 -1.3125 C 0.722656 -1.21875 0.585938 -1.117188 0.453125 -1.015625 C 0.421875 -0.992188 0.390625 -0.972656 0.359375 -0.953125 Z M 0.359375 -0.953125 "/></g></g></g><g fill="#000000" fill-opacity="1"><g transform="translate(60.736421, 21.525832)"><g><path d="M 1.71875 -1.21875 C 1.757812 -1.195312 1.765625 -1.144531 1.734375 -1.0625 C 1.691406 -1 1.644531 -0.941406 1.59375 -0.890625 C 1.539062 -0.835938 1.484375 -0.789062 1.421875 -0.75 C 1.410156 -0.75 1.40625 -0.75 1.40625 -0.75 C 1.375 -0.71875 1.332031 -0.691406 1.28125 -0.671875 C 0.90625 -0.535156 0.710938 -0.613281 0.703125 -0.90625 C 0.546875 -0.78125 0.441406 -0.703125 0.390625 -0.671875 C 0.265625 -0.585938 0.128906 -0.550781 -0.015625 -0.5625 C -0.128906 -0.570312 -0.203125 -0.601562 -0.234375 -0.65625 C -0.273438 -0.71875 -0.273438 -0.800781 -0.234375 -0.90625 C -0.160156 -1.070312 -0.0625 -1.21875 0.0625 -1.34375 C 0.21875 -1.476562 0.390625 -1.585938 0.578125 -1.671875 C 0.671875 -1.722656 0.773438 -1.742188 0.890625 -1.734375 C 0.992188 -1.722656 1.054688 -1.660156 1.078125 -1.546875 C 1.085938 -1.515625 1.078125 -1.484375 1.046875 -1.453125 C 1.015625 -1.421875 0.976562 -1.414062 0.9375 -1.4375 C 0.925781 -1.4375 0.914062 -1.4375 0.90625 -1.4375 C 0.851562 -1.5 0.800781 -1.523438 0.75 -1.515625 C 0.707031 -1.503906 0.660156 -1.484375 0.609375 -1.453125 C 0.367188 -1.316406 0.1875 -1.117188 0.0625 -0.859375 C 0.0625 -0.847656 0.0625 -0.832031 0.0625 -0.8125 C 0.0625 -0.800781 0.0625 -0.796875 0.0625 -0.796875 C 0.09375 -0.785156 0.125 -0.785156 0.15625 -0.796875 C 0.195312 -0.804688 0.234375 -0.820312 0.265625 -0.84375 C 0.304688 -0.875 0.335938 -0.898438 0.359375 -0.921875 C 0.472656 -1.023438 0.585938 -1.128906 0.703125 -1.234375 C 0.753906 -1.285156 0.816406 -1.3125 0.890625 -1.3125 C 0.992188 -1.3125 1.035156 -1.265625 1.015625 -1.171875 C 1.003906 -1.140625 0.992188 -1.101562 0.984375 -1.0625 C 0.941406 -0.914062 0.941406 -0.828125 0.984375 -0.796875 C 1.023438 -0.773438 1.082031 -0.773438 1.15625 -0.796875 C 1.238281 -0.828125 1.316406 -0.878906 1.390625 -0.953125 C 1.472656 -1.023438 1.539062 -1.09375 1.59375 -1.15625 C 1.644531 -1.21875 1.6875 -1.238281 1.71875 -1.21875 Z M 1.71875 -1.21875 "/></g></g></g><g fill="#000000" fill-opacity="1"><g transform="translate(63.051909, 21.525832)"><g><path d="M 2.125 -1.25 C 2.15625 -1.25 2.171875 -1.238281 2.171875 -1.21875 C 2.171875 -1.207031 2.171875 -1.203125 2.171875 -1.203125 C 2.140625 -1.128906 2.097656 -1.066406 2.046875 -1.015625 C 1.929688 -0.890625 1.800781 -0.789062 1.65625 -0.71875 C 1.582031 -0.675781 1.5 -0.648438 1.40625 -0.640625 C 1.1875 -0.640625 1.085938 -0.742188 1.109375 -0.953125 C 1.117188 -0.992188 1.128906 -1.039062 1.140625 -1.09375 C 1.148438 -1.113281 1.15625 -1.132812 1.15625 -1.15625 C 1.175781 -1.226562 1.179688 -1.269531 1.171875 -1.28125 C 1.160156 -1.289062 1.132812 -1.265625 1.09375 -1.203125 C 1.082031 -1.203125 1.070312 -1.191406 1.0625 -1.171875 C 1 -1.097656 0.9375 -1.023438 0.875 -0.953125 C 0.75 -0.816406 0.609375 -0.703125 0.453125 -0.609375 C 0.359375 -0.546875 0.257812 -0.515625 0.15625 -0.515625 C -0.0195312 -0.503906 -0.117188 -0.582031 -0.140625 -0.75 C -0.140625 -0.8125 -0.132812 -0.878906 -0.125 -0.953125 C -0.0507812 -1.222656 0.0859375 -1.425781 0.296875 -1.5625 C 0.503906 -1.707031 0.742188 -1.757812 1.015625 -1.71875 C 1.085938 -1.695312 1.144531 -1.71875 1.1875 -1.78125 C 1.195312 -1.800781 1.207031 -1.828125 1.21875 -1.859375 C 1.289062 -1.984375 1.363281 -2.109375 1.4375 -2.234375 C 1.570312 -2.472656 1.707031 -2.71875 1.84375 -2.96875 C 1.945312 -3.15625 2.050781 -3.347656 2.15625 -3.546875 C 2.195312 -3.609375 2.234375 -3.664062 2.265625 -3.71875 C 2.285156 -3.75 2.304688 -3.765625 2.328125 -3.765625 C 2.359375 -3.773438 2.390625 -3.78125 2.421875 -3.78125 C 2.421875 -3.78125 2.425781 -3.78125 2.4375 -3.78125 C 2.46875 -3.78125 2.492188 -3.769531 2.515625 -3.75 C 2.535156 -3.738281 2.539062 -3.71875 2.53125 -3.6875 C 2.507812 -3.625 2.484375 -3.5625 2.453125 -3.5 C 2.304688 -3.207031 2.164062 -2.910156 2.03125 -2.609375 C 1.90625 -2.304688 1.78125 -2.003906 1.65625 -1.703125 C 1.613281 -1.597656 1.570312 -1.492188 1.53125 -1.390625 C 1.476562 -1.265625 1.429688 -1.132812 1.390625 -1 C 1.378906 -0.976562 1.375 -0.953125 1.375 -0.921875 C 1.375 -0.890625 1.390625 -0.863281 1.421875 -0.84375 C 1.441406 -0.832031 1.457031 -0.832031 1.46875 -0.84375 C 1.488281 -0.851562 1.515625 -0.863281 1.546875 -0.875 C 1.703125 -0.96875 1.84375 -1.078125 1.96875 -1.203125 C 1.988281 -1.222656 2.007812 -1.238281 2.03125 -1.25 C 2.0625 -1.257812 2.09375 -1.257812 2.125 -1.25 Z M 0.9375 -1.40625 C 0.957031 -1.4375 0.960938 -1.460938 0.953125 -1.484375 C 0.953125 -1.515625 0.9375 -1.535156 0.90625 -1.546875 C 0.84375 -1.578125 0.78125 -1.582031 0.71875 -1.5625 C 0.550781 -1.507812 0.410156 -1.414062 0.296875 -1.28125 C 0.191406 -1.144531 0.132812 -0.992188 0.125 -0.828125 C 0.125 -0.816406 0.125 -0.8125 0.125 -0.8125 C 0.125 -0.789062 0.125 -0.773438 0.125 -0.765625 C 0.132812 -0.691406 0.179688 -0.675781 0.265625 -0.71875 C 0.347656 -0.769531 0.4375 -0.847656 0.53125 -0.953125 C 0.632812 -1.054688 0.722656 -1.15625 0.796875 -1.25 C 0.878906 -1.34375 0.925781 -1.394531 0.9375 -1.40625 Z M 0.9375 -1.40625 "/></g></g></g><g fill="#000000" fill-opacity="1"><g transform="translate(65.780265, 21.525832)"><g><path d="M 1.71875 -1.21875 C 1.757812 -1.195312 1.765625 -1.144531 1.734375 -1.0625 C 1.691406 -1 1.644531 -0.941406 1.59375 -0.890625 C 1.539062 -0.835938 1.484375 -0.789062 1.421875 -0.75 C 1.410156 -0.75 1.40625 -0.75 1.40625 -0.75 C 1.375 -0.71875 1.332031 -0.691406 1.28125 -0.671875 C 0.90625 -0.535156 0.710938 -0.613281 0.703125 -0.90625 C 0.546875 -0.78125 0.441406 -0.703125 0.390625 -0.671875 C 0.265625 -0.585938 0.128906 -0.550781 -0.015625 -0.5625 C -0.128906 -0.570312 -0.203125 -0.601562 -0.234375 -0.65625 C -0.273438 -0.71875 -0.273438 -0.800781 -0.234375 -0.90625 C -0.160156 -1.070312 -0.0625 -1.21875 0.0625 -1.34375 C 0.21875 -1.476562 0.390625 -1.585938 0.578125 -1.671875 C 0.671875 -1.722656 0.773438 -1.742188 0.890625 -1.734375 C 0.992188 -1.722656 1.054688 -1.660156 1.078125 -1.546875 C 1.085938 -1.515625 1.078125 -1.484375 1.046875 -1.453125 C 1.015625 -1.421875 0.976562 -1.414062 0.9375 -1.4375 C 0.925781 -1.4375 0.914062 -1.4375 0.90625 -1.4375 C 0.851562 -1.5 0.800781 -1.523438 0.75 -1.515625 C 0.707031 -1.503906 0.660156 -1.484375 0.609375 -1.453125 C 0.367188 -1.316406 0.1875 -1.117188 0.0625 -0.859375 C 0.0625 -0.847656 0.0625 -0.832031 0.0625 -0.8125 C 0.0625 -0.800781 0.0625 -0.796875 0.0625 -0.796875 C 0.09375 -0.785156 0.125 -0.785156 0.15625 -0.796875 C 0.195312 -0.804688 0.234375 -0.820312 0.265625 -0.84375 C 0.304688 -0.875 0.335938 -0.898438 0.359375 -0.921875 C 0.472656 -1.023438 0.585938 -1.128906 0.703125 -1.234375 C 0.753906 -1.285156 0.816406 -1.3125 0.890625 -1.3125 C 0.992188 -1.3125 1.035156 -1.265625 1.015625 -1.171875 C 1.003906 -1.140625 0.992188 -1.101562 0.984375 -1.0625 C 0.941406 -0.914062 0.941406 -0.828125 0.984375 -0.796875 C 1.023438 -0.773438 1.082031 -0.773438 1.15625 -0.796875 C 1.238281 -0.828125 1.316406 -0.878906 1.390625 -0.953125 C 1.472656 -1.023438 1.539062 -1.09375 1.59375 -1.15625 C 1.644531 -1.21875 1.6875 -1.238281 1.71875 -1.21875 Z M 1.71875 -1.21875 "/></g></g></g></svg>