<svg xmlns="http://www.w3.org/2000/svg" xmlns:xlink="http://www.w3.org/1999/xlink" width="90" zoomAndPan="magnify" viewBox="0 0 67.5 30.000001" height="40" preserveAspectRatio="xMidYMid meet" version="1.0"><defs><g/></defs><g fill="#000000" fill-opacity="1"><g transform="translate(4.06943, 17.00734)"><g><path d="M 24.046875 0.375 C 24.066406 0.375 24.082031 0.375 24.09375 0.375 C 24.132812 0.375 24.171875 0.375 24.203125 0.375 C 24.242188 0.382812 24.28125 0.40625 24.3125 0.4375 C 24.3125 0.445312 24.316406 0.457031 24.328125 0.46875 C 24.335938 0.476562 24.34375 0.492188 24.34375 0.515625 C 24.332031 0.523438 24.320312 0.535156 24.3125 0.546875 C 24.3125 0.554688 24.304688 0.566406 24.296875 0.578125 C 24.253906 0.585938 24.207031 0.59375 24.15625 0.59375 C 24.132812 0.59375 24.113281 0.59375 24.09375 0.59375 C 23.832031 0.570312 23.570312 0.550781 23.3125 0.53125 C 22.832031 0.5 22.351562 0.46875 21.875 0.4375 C 19.90625 0.3125 17.960938 0.242188 16.046875 0.234375 C 14.128906 0.222656 12.179688 0.25 10.203125 0.3125 C 9.992188 0.3125 9.789062 0.320312 9.59375 0.34375 C 9.394531 0.363281 9.195312 0.375 9 0.375 C 8.800781 0.382812 8.648438 0.46875 8.546875 0.625 C 8.054688 1.269531 7.523438 1.882812 6.953125 2.46875 C 6.554688 2.882812 6.140625 3.253906 5.703125 3.578125 C 5.265625 3.898438 4.804688 4.15625 4.328125 4.34375 C 3.847656 4.539062 3.347656 4.640625 2.828125 4.640625 C 2.304688 4.640625 1.757812 4.507812 1.1875 4.25 C 0.925781 4.132812 0.691406 3.972656 0.484375 3.765625 C 0.160156 3.390625 0.125 2.988281 0.375 2.5625 C 0.5625 2.28125 0.796875 2.046875 1.078125 1.859375 C 1.515625 1.578125 2.019531 1.335938 2.59375 1.140625 C 3.164062 0.941406 3.769531 0.78125 4.40625 0.65625 C 5.050781 0.53125 5.679688 0.429688 6.296875 0.359375 C 6.921875 0.285156 7.488281 0.234375 8 0.203125 C 8.207031 0.179688 8.367188 0.0859375 8.484375 -0.078125 C 8.898438 -0.679688 9.34375 -1.390625 9.8125 -2.203125 C 10.289062 -3.023438 10.75 -3.890625 11.1875 -4.796875 C 11.632812 -5.703125 12.015625 -6.582031 12.328125 -7.4375 C 12.640625 -8.289062 12.851562 -9.054688 12.96875 -9.734375 C 13 -9.941406 12.992188 -10.148438 12.953125 -10.359375 C 12.859375 -10.691406 12.648438 -10.882812 12.328125 -10.9375 C 12.273438 -10.9375 12.226562 -10.9375 12.1875 -10.9375 C 12.09375 -10.9375 11.992188 -10.925781 11.890625 -10.90625 C 11.460938 -10.8125 10.9375 -10.613281 10.3125 -10.3125 C 9.6875 -10.007812 9.023438 -9.632812 8.328125 -9.1875 C 7.640625 -8.75 6.976562 -8.257812 6.34375 -7.71875 C 5.71875 -7.1875 5.1875 -6.644531 4.75 -6.09375 C 4.3125 -5.550781 4.035156 -5.019531 3.921875 -4.5 C 3.828125 -4.0625 3.984375 -3.742188 4.390625 -3.546875 C 4.710938 -3.398438 5.054688 -3.332031 5.421875 -3.34375 C 5.796875 -3.363281 6.148438 -3.410156 6.484375 -3.484375 C 6.691406 -3.523438 6.898438 -3.546875 7.109375 -3.546875 C 7.203125 -3.546875 7.285156 -3.539062 7.359375 -3.53125 C 7.390625 -3.53125 7.410156 -3.523438 7.421875 -3.515625 C 7.441406 -3.503906 7.445312 -3.484375 7.4375 -3.453125 C 7.4375 -3.398438 7.410156 -3.367188 7.359375 -3.359375 C 7.078125 -3.335938 6.789062 -3.300781 6.5 -3.25 C 6.144531 -3.1875 5.789062 -3.144531 5.4375 -3.125 C 5.082031 -3.101562 4.726562 -3.140625 4.375 -3.234375 C 4.195312 -3.285156 4.035156 -3.359375 3.890625 -3.453125 C 3.523438 -3.691406 3.375 -4.03125 3.4375 -4.46875 C 3.539062 -5.019531 3.820312 -5.585938 4.28125 -6.171875 C 4.738281 -6.765625 5.300781 -7.34375 5.96875 -7.90625 C 6.632812 -8.46875 7.335938 -8.984375 8.078125 -9.453125 C 8.816406 -9.921875 9.519531 -10.304688 10.1875 -10.609375 C 10.863281 -10.910156 11.429688 -11.097656 11.890625 -11.171875 C 12.003906 -11.191406 12.117188 -11.203125 12.234375 -11.203125 C 12.429688 -11.203125 12.625 -11.175781 12.8125 -11.125 C 13.15625 -11.007812 13.367188 -10.773438 13.453125 -10.421875 C 13.535156 -10.046875 13.488281 -9.53125 13.3125 -8.875 C 13.144531 -8.21875 12.894531 -7.484375 12.5625 -6.671875 C 12.226562 -5.867188 11.859375 -5.0625 11.453125 -4.25 C 11.046875 -3.4375 10.648438 -2.6875 10.265625 -2 C 9.878906 -1.320312 9.546875 -0.773438 9.265625 -0.359375 C 9.179688 -0.253906 9.101562 -0.144531 9.03125 -0.03125 C 9.019531 0 9.019531 0.0234375 9.03125 0.046875 C 9.050781 0.078125 9.078125 0.09375 9.109375 0.09375 L 9.125 0.09375 C 9.21875 0.09375 9.3125 0.09375 9.40625 0.09375 C 9.675781 0.0820312 9.953125 0.0664062 10.234375 0.046875 C 10.804688 0.0234375 11.382812 0.00390625 11.96875 -0.015625 C 16 -0.128906 20.023438 0 24.046875 0.375 Z M 7.625 1.046875 C 7.65625 1.015625 7.679688 0.976562 7.703125 0.9375 C 7.753906 0.882812 7.804688 0.820312 7.859375 0.75 C 7.921875 0.675781 7.972656 0.585938 8.015625 0.484375 C 7.960938 0.484375 7.921875 0.484375 7.890625 0.484375 C 7.867188 0.484375 7.847656 0.484375 7.828125 0.484375 C 7.816406 0.484375 7.796875 0.484375 7.765625 0.484375 C 7.597656 0.503906 7.429688 0.523438 7.265625 0.546875 C 7.046875 0.578125 6.828125 0.601562 6.609375 0.625 C 6.097656 0.675781 5.507812 0.757812 4.84375 0.875 C 4.1875 1 3.535156 1.164062 2.890625 1.375 C 2.253906 1.582031 1.734375 1.847656 1.328125 2.171875 C 1.179688 2.273438 1.050781 2.398438 0.9375 2.546875 C 0.59375 2.972656 0.628906 3.367188 1.046875 3.734375 C 1.515625 4.117188 2 4.328125 2.5 4.359375 C 3 4.398438 3.5 4.3125 4 4.09375 C 4.5 3.882812 4.972656 3.601562 5.421875 3.25 C 5.867188 2.894531 6.28125 2.519531 6.65625 2.125 C 7.039062 1.726562 7.363281 1.367188 7.625 1.046875 Z M 7.625 1.046875 "/></g></g></g><g fill="#000000" fill-opacity="1"><g transform="translate(16.798296, 17.00734)"><g><path d="M 0.09375 -0.625 C -0.132812 -0.625 -0.25 -0.742188 -0.25 -0.984375 C -0.25 -1.265625 -0.0625 -1.765625 0.3125 -2.484375 C 0.320312 -2.515625 0.347656 -2.53125 0.390625 -2.53125 C 0.535156 -2.53125 0.609375 -2.472656 0.609375 -2.359375 C 0.609375 -2.316406 0.59375 -2.265625 0.5625 -2.203125 C 0.5625 -2.179688 0.441406 -1.867188 0.203125 -1.265625 C 0.160156 -1.171875 0.140625 -1.097656 0.140625 -1.046875 C 0.140625 -0.992188 0.164062 -0.96875 0.21875 -0.96875 C 0.382812 -0.96875 0.832031 -1.394531 1.5625 -2.25 C 1.65625 -2.363281 1.75 -2.421875 1.84375 -2.421875 C 1.976562 -2.421875 2.046875 -2.375 2.046875 -2.28125 C 2.046875 -2.238281 2.003906 -2.09375 1.921875 -1.84375 C 1.804688 -1.507812 1.75 -1.316406 1.75 -1.265625 C 1.75 -1.191406 1.773438 -1.15625 1.828125 -1.15625 C 1.960938 -1.15625 2.34375 -1.382812 2.96875 -1.84375 C 3 -1.875 3.03125 -1.890625 3.0625 -1.890625 C 3.125 -1.890625 3.15625 -1.835938 3.15625 -1.734375 C 3.15625 -1.710938 3.144531 -1.691406 3.125 -1.671875 C 2.789062 -1.390625 2.507812 -1.175781 2.28125 -1.03125 C 2.0625 -0.894531 1.867188 -0.828125 1.703125 -0.828125 L 1.65625 -0.828125 C 1.414062 -0.878906 1.296875 -1.066406 1.296875 -1.390625 C 1.035156 -1.160156 0.816406 -0.972656 0.640625 -0.828125 C 0.472656 -0.691406 0.289062 -0.625 0.09375 -0.625 Z M 0.09375 -0.625 "/></g></g></g><g fill="#000000" fill-opacity="1"><g transform="translate(20.795204, 17.00734)"><g><path d="M 1.71875 -1.6875 C 1.789062 -1.769531 1.851562 -1.8125 1.90625 -1.8125 C 1.957031 -1.820312 1.988281 -1.8125 2 -1.78125 C 2.019531 -1.757812 2.015625 -1.726562 1.984375 -1.6875 C 1.773438 -1.4375 1.539062 -1.21875 1.28125 -1.03125 C 1.019531 -0.851562 0.753906 -0.75 0.484375 -0.71875 C 0.210938 -0.695312 0.0507812 -0.847656 0 -1.171875 C -0.0507812 -1.492188 0.140625 -2.148438 0.578125 -3.140625 C 1.015625 -4.140625 1.359375 -4.957031 1.609375 -5.59375 C 1.628906 -5.644531 1.660156 -5.691406 1.703125 -5.734375 C 1.765625 -5.796875 1.832031 -5.8125 1.90625 -5.78125 C 1.9375 -5.769531 1.960938 -5.75 1.984375 -5.71875 C 2.015625 -5.695312 2.023438 -5.648438 2.015625 -5.578125 C 0.898438 -2.929688 0.359375 -1.492188 0.390625 -1.265625 C 0.421875 -1.035156 0.566406 -0.976562 0.828125 -1.09375 C 1.097656 -1.207031 1.300781 -1.320312 1.4375 -1.4375 C 1.582031 -1.5625 1.675781 -1.644531 1.71875 -1.6875 Z M 1.71875 -1.6875 "/></g></g></g><g fill="#000000" fill-opacity="1"><g transform="translate(23.648853, 17.00734)"><g><path d="M 1.40625 -1.484375 C 1.28125 -1.335938 1.128906 -1.203125 0.953125 -1.078125 C 0.785156 -0.953125 0.59375 -0.867188 0.375 -0.828125 C 0.15625 -0.785156 -0.0078125 -0.800781 -0.125 -0.875 C -0.25 -0.945312 -0.273438 -1.113281 -0.203125 -1.375 C -0.109375 -1.644531 0.0195312 -1.898438 0.1875 -2.140625 C 0.226562 -2.191406 0.28125 -2.226562 0.34375 -2.25 C 0.394531 -2.257812 0.441406 -2.25 0.484375 -2.21875 C 0.523438 -2.195312 0.539062 -2.160156 0.53125 -2.109375 C 0.5 -2.023438 0.457031 -1.941406 0.40625 -1.859375 C 0.363281 -1.773438 0.335938 -1.722656 0.328125 -1.703125 C 0.242188 -1.546875 0.1875 -1.382812 0.15625 -1.21875 C 0.15625 -1.125 0.28125 -1.117188 0.53125 -1.203125 C 0.78125 -1.285156 1.023438 -1.4375 1.265625 -1.65625 C 1.503906 -1.875 1.617188 -1.9375 1.609375 -1.84375 C 1.597656 -1.757812 1.53125 -1.640625 1.40625 -1.484375 Z M 0.796875 -2.671875 C 0.773438 -2.660156 0.742188 -2.648438 0.703125 -2.640625 C 0.671875 -2.628906 0.632812 -2.617188 0.59375 -2.609375 C 0.550781 -2.609375 0.519531 -2.613281 0.5 -2.625 C 0.476562 -2.644531 0.476562 -2.6875 0.5 -2.75 C 0.539062 -2.84375 0.582031 -2.925781 0.625 -3 C 0.664062 -3.082031 0.71875 -3.164062 0.78125 -3.25 C 0.820312 -3.289062 0.863281 -3.3125 0.90625 -3.3125 C 0.957031 -3.320312 1 -3.3125 1.03125 -3.28125 C 1.070312 -3.25 1.082031 -3.207031 1.0625 -3.15625 C 1.007812 -2.96875 0.921875 -2.804688 0.796875 -2.671875 Z M 0.796875 -2.671875 "/></g></g></g><g fill="#000000" fill-opacity="1"><g transform="translate(26.116695, 17.00734)"><g><path d="M 0.5625 -0.84375 L 0.546875 -0.84375 C 0.203125 -0.84375 -0.0195312 -0.914062 -0.125 -1.0625 C -0.226562 -1.207031 -0.222656 -1.40625 -0.109375 -1.65625 C -0.015625 -1.84375 0.109375 -2.003906 0.265625 -2.140625 C 0.316406 -2.191406 0.367188 -2.226562 0.421875 -2.25 C 0.472656 -2.28125 0.535156 -2.296875 0.609375 -2.296875 C 0.648438 -2.304688 0.695312 -2.300781 0.75 -2.28125 C 0.757812 -2.269531 0.773438 -2.265625 0.796875 -2.265625 C 0.835938 -2.265625 0.875 -2.273438 0.90625 -2.296875 C 0.914062 -2.304688 0.929688 -2.3125 0.953125 -2.3125 C 1.023438 -2.34375 1.109375 -2.359375 1.203125 -2.359375 C 1.234375 -2.359375 1.269531 -2.359375 1.3125 -2.359375 C 1.445312 -2.335938 1.550781 -2.28125 1.625 -2.1875 C 1.695312 -2.09375 1.722656 -1.972656 1.703125 -1.828125 C 1.691406 -1.742188 1.664062 -1.664062 1.625 -1.59375 C 1.351562 -1.113281 1.003906 -0.863281 0.578125 -0.84375 Z M 1.125 -2.109375 C 0.9375 -2.109375 0.769531 -2.050781 0.625 -1.9375 C 0.476562 -1.832031 0.367188 -1.703125 0.296875 -1.546875 C 0.222656 -1.398438 0.203125 -1.28125 0.234375 -1.1875 C 0.273438 -1.09375 0.375 -1.066406 0.53125 -1.109375 C 0.71875 -1.160156 0.882812 -1.265625 1.03125 -1.421875 C 1.175781 -1.578125 1.265625 -1.722656 1.296875 -1.859375 C 1.328125 -2.003906 1.269531 -2.085938 1.125 -2.109375 Z M 1.125 -2.109375 "/></g></g></g><g fill="#000000" fill-opacity="1"><g transform="translate(29.083608, 17.00734)"><g/></g></g><g fill="#000000" fill-opacity="1"><g transform="translate(32.846908, 17.00734)"><g><path d="M 17.1875 3.90625 C 17.207031 3.914062 17.21875 3.929688 17.21875 3.953125 C 17.226562 3.972656 17.222656 3.992188 17.203125 4.015625 C 16.265625 4.660156 15.296875 5.160156 14.296875 5.515625 C 13.296875 5.878906 12.28125 6.0625 11.25 6.0625 C 10.21875 6.0625 9.179688 5.84375 8.140625 5.40625 C 6.734375 4.789062 5.546875 3.898438 4.578125 2.734375 C 4.554688 2.710938 4.539062 2.691406 4.53125 2.671875 C 4.519531 2.660156 4.503906 2.644531 4.484375 2.625 C 4.441406 2.570312 4.40625 2.53125 4.375 2.5 C 4.34375 2.46875 4.316406 2.453125 4.296875 2.453125 C 4.242188 2.460938 4.164062 2.488281 4.0625 2.53125 C 3.757812 2.675781 3.425781 2.796875 3.0625 2.890625 C 2.695312 2.984375 2.328125 3.023438 1.953125 3.015625 C 1.585938 3.015625 1.25 2.941406 0.9375 2.796875 C 0.632812 2.648438 0.382812 2.40625 0.1875 2.0625 C 0.0195312 1.78125 -0.0976562 1.484375 -0.171875 1.171875 C -0.242188 0.859375 -0.28125 0.539062 -0.28125 0.21875 C -0.300781 -0.707031 -0.160156 -1.613281 0.140625 -2.5 C 0.148438 -2.539062 0.164062 -2.578125 0.1875 -2.609375 C 0.207031 -2.660156 0.222656 -2.710938 0.234375 -2.765625 C 0.265625 -2.847656 0.242188 -2.910156 0.171875 -2.953125 C 0.148438 -2.960938 0.128906 -2.976562 0.109375 -3 C 0.0351562 -3.03125 -0.03125 -3.070312 -0.09375 -3.125 C -0.789062 -3.59375 -1.113281 -4.253906 -1.0625 -5.109375 C -1.019531 -5.679688 -0.820312 -6.25 -0.46875 -6.8125 C -0.125 -7.375 0.328125 -7.910156 0.890625 -8.421875 C 1.453125 -8.929688 2.078125 -9.382812 2.765625 -9.78125 C 3.453125 -10.175781 4.15625 -10.488281 4.875 -10.71875 C 5.601562 -10.945312 6.300781 -11.066406 6.96875 -11.078125 C 7.632812 -11.085938 8.234375 -10.957031 8.765625 -10.6875 C 9.296875 -10.414062 9.707031 -9.976562 10 -9.375 C 10.28125 -8.75 10.414062 -8.082031 10.40625 -7.375 C 10.40625 -7.28125 10.40625 -7.1875 10.40625 -7.09375 C 10.394531 -7.050781 10.390625 -7.007812 10.390625 -6.96875 C 10.367188 -6.320312 10.28125 -5.691406 10.125 -5.078125 C 9.96875 -4.460938 9.753906 -3.863281 9.484375 -3.28125 C 8.992188 -2.175781 8.375 -1.179688 7.625 -0.296875 C 6.875 0.585938 5.992188 1.363281 4.984375 2.03125 C 4.960938 2.039062 4.945312 2.046875 4.9375 2.046875 C 4.894531 2.078125 4.859375 2.101562 4.828125 2.125 C 4.753906 2.1875 4.75 2.253906 4.8125 2.328125 C 4.820312 2.335938 4.828125 2.347656 4.828125 2.359375 C 4.835938 2.367188 4.847656 2.378906 4.859375 2.390625 C 5.679688 3.421875 6.617188 4.222656 7.671875 4.796875 C 8.722656 5.378906 9.84375 5.707031 11.03125 5.78125 C 12.226562 5.851562 13.457031 5.632812 14.71875 5.125 C 15.351562 4.851562 15.945312 4.515625 16.5 4.109375 C 16.625 4.023438 16.753906 3.945312 16.890625 3.875 C 16.929688 3.863281 16.976562 3.859375 17.03125 3.859375 C 17.082031 3.859375 17.132812 3.875 17.1875 3.90625 Z M 4.546875 1.90625 C 4.566406 1.90625 4.59375 1.894531 4.625 1.875 C 4.675781 1.84375 4.726562 1.8125 4.78125 1.78125 C 4.9375 1.675781 5.085938 1.570312 5.234375 1.46875 C 7.035156 0.101562 8.363281 -1.617188 9.21875 -3.703125 C 9.4375 -4.210938 9.609375 -4.75 9.734375 -5.3125 C 9.859375 -5.875 9.941406 -6.476562 9.984375 -7.125 C 9.992188 -7.363281 9.96875 -7.679688 9.90625 -8.078125 C 9.84375 -8.597656 9.6875 -9.078125 9.4375 -9.515625 C 9.144531 -10.003906 8.753906 -10.347656 8.265625 -10.546875 C 7.785156 -10.742188 7.242188 -10.820312 6.640625 -10.78125 C 6.035156 -10.738281 5.410156 -10.601562 4.765625 -10.375 C 4.117188 -10.144531 3.488281 -9.84375 2.875 -9.46875 C 2.269531 -9.101562 1.710938 -8.6875 1.203125 -8.21875 C 0.703125 -7.757812 0.296875 -7.273438 -0.015625 -6.765625 C -0.335938 -6.253906 -0.53125 -5.742188 -0.59375 -5.234375 C -0.6875 -4.410156 -0.394531 -3.769531 0.28125 -3.3125 C 0.320312 -3.269531 0.359375 -3.25 0.390625 -3.25 C 0.429688 -3.257812 0.46875 -3.296875 0.5 -3.359375 C 0.539062 -3.421875 0.578125 -3.476562 0.609375 -3.53125 C 0.671875 -3.632812 0.734375 -3.726562 0.796875 -3.8125 C 0.847656 -3.894531 0.925781 -3.941406 1.03125 -3.953125 C 1.03125 -3.953125 1.035156 -3.953125 1.046875 -3.953125 L 1.0625 -3.953125 C 1.09375 -3.953125 1.125 -3.9375 1.15625 -3.90625 C 1.1875 -3.875 1.191406 -3.84375 1.171875 -3.8125 C 1.128906 -3.726562 1.085938 -3.644531 1.046875 -3.5625 C 0.984375 -3.457031 0.925781 -3.351562 0.875 -3.25 C 0.789062 -3.101562 0.828125 -3.007812 0.984375 -2.96875 C 1.453125 -2.820312 1.910156 -2.789062 2.359375 -2.875 C 2.804688 -2.96875 3.210938 -3.148438 3.578125 -3.421875 C 3.953125 -3.703125 4.253906 -4.046875 4.484375 -4.453125 C 4.722656 -4.867188 4.859375 -5.328125 4.890625 -5.828125 C 4.921875 -6.296875 4.84375 -6.75 4.65625 -7.1875 C 4.644531 -7.207031 4.640625 -7.226562 4.640625 -7.25 C 4.648438 -7.269531 4.660156 -7.289062 4.671875 -7.3125 C 4.703125 -7.351562 4.742188 -7.367188 4.796875 -7.359375 C 4.816406 -7.367188 4.835938 -7.367188 4.859375 -7.359375 C 4.953125 -7.335938 5.015625 -7.28125 5.046875 -7.1875 C 5.160156 -6.925781 5.226562 -6.65625 5.25 -6.375 C 5.320312 -5.800781 5.253906 -5.257812 5.046875 -4.75 C 4.835938 -4.238281 4.523438 -3.800781 4.109375 -3.4375 C 3.691406 -3.070312 3.207031 -2.820312 2.65625 -2.6875 C 2.050781 -2.550781 1.457031 -2.550781 0.875 -2.6875 C 0.8125 -2.707031 0.757812 -2.71875 0.71875 -2.71875 C 0.6875 -2.71875 0.65625 -2.703125 0.625 -2.671875 C 0.601562 -2.640625 0.582031 -2.59375 0.5625 -2.53125 C 0.40625 -2.070312 0.285156 -1.609375 0.203125 -1.140625 C 0.128906 -0.671875 0.101562 -0.195312 0.125 0.28125 C 0.144531 0.800781 0.253906 1.289062 0.453125 1.75 C 0.628906 2.132812 0.851562 2.40625 1.125 2.5625 C 1.40625 2.726562 1.707031 2.8125 2.03125 2.8125 C 2.363281 2.8125 2.695312 2.753906 3.03125 2.640625 C 3.363281 2.535156 3.6875 2.398438 4 2.234375 C 4.070312 2.191406 4.085938 2.128906 4.046875 2.046875 C 3.984375 1.960938 3.925781 1.882812 3.875 1.8125 C 3.75 1.613281 3.625 1.421875 3.5 1.234375 C 3.269531 0.867188 3.082031 0.484375 2.9375 0.078125 C 2.894531 -0.015625 2.859375 -0.113281 2.828125 -0.21875 C 2.804688 -0.320312 2.796875 -0.425781 2.796875 -0.53125 C 2.804688 -0.601562 2.816406 -0.675781 2.828125 -0.75 C 2.847656 -0.800781 2.878906 -0.835938 2.921875 -0.859375 C 2.960938 -0.878906 3.007812 -0.890625 3.0625 -0.890625 C 3.082031 -0.890625 3.109375 -0.890625 3.140625 -0.890625 C 3.179688 -0.878906 3.203125 -0.851562 3.203125 -0.8125 C 3.210938 -0.78125 3.21875 -0.75 3.21875 -0.71875 C 3.207031 -0.5 3.242188 -0.289062 3.328125 -0.09375 C 3.460938 0.257812 3.625 0.59375 3.8125 0.90625 C 4 1.226562 4.203125 1.535156 4.421875 1.828125 C 4.460938 1.878906 4.503906 1.90625 4.546875 1.90625 Z M 4.546875 1.90625 "/></g></g></g><g fill="#000000" fill-opacity="1"><g transform="translate(43.600729, 17.00734)"><g><path d="M 0.09375 -0.625 C -0.132812 -0.625 -0.25 -0.742188 -0.25 -0.984375 C -0.25 -1.265625 -0.0625 -1.765625 0.3125 -2.484375 C 0.320312 -2.515625 0.347656 -2.53125 0.390625 -2.53125 C 0.535156 -2.53125 0.609375 -2.472656 0.609375 -2.359375 C 0.609375 -2.316406 0.59375 -2.265625 0.5625 -2.203125 C 0.5625 -2.179688 0.441406 -1.867188 0.203125 -1.265625 C 0.160156 -1.171875 0.140625 -1.097656 0.140625 -1.046875 C 0.140625 -0.992188 0.164062 -0.96875 0.21875 -0.96875 C 0.382812 -0.96875 0.832031 -1.394531 1.5625 -2.25 C 1.65625 -2.363281 1.75 -2.421875 1.84375 -2.421875 C 1.976562 -2.421875 2.046875 -2.375 2.046875 -2.28125 C 2.046875 -2.238281 2.003906 -2.09375 1.921875 -1.84375 C 1.804688 -1.507812 1.75 -1.316406 1.75 -1.265625 C 1.75 -1.191406 1.773438 -1.15625 1.828125 -1.15625 C 1.960938 -1.15625 2.34375 -1.382812 2.96875 -1.84375 C 3 -1.875 3.03125 -1.890625 3.0625 -1.890625 C 3.125 -1.890625 3.15625 -1.835938 3.15625 -1.734375 C 3.15625 -1.710938 3.144531 -1.691406 3.125 -1.671875 C 2.789062 -1.390625 2.507812 -1.175781 2.28125 -1.03125 C 2.0625 -0.894531 1.867188 -0.828125 1.703125 -0.828125 L 1.65625 -0.828125 C 1.414062 -0.878906 1.296875 -1.066406 1.296875 -1.390625 C 1.035156 -1.160156 0.816406 -0.972656 0.640625 -0.828125 C 0.472656 -0.691406 0.289062 -0.625 0.09375 -0.625 Z M 0.09375 -0.625 "/></g></g></g><g fill="#000000" fill-opacity="1"><g transform="translate(47.597638, 17.00734)"><g><path d="M 2.015625 -1.359375 C 1.878906 -1.222656 1.71875 -1.109375 1.53125 -1.015625 C 1.351562 -0.921875 1.203125 -0.859375 1.078125 -0.828125 C 0.960938 -0.796875 0.835938 -0.78125 0.703125 -0.78125 C 0.492188 -0.769531 0.300781 -0.796875 0.125 -0.859375 C -0.15625 -0.972656 -0.253906 -1.191406 -0.171875 -1.515625 C -0.0859375 -1.796875 0.078125 -2.015625 0.328125 -2.171875 C 0.585938 -2.335938 0.851562 -2.414062 1.125 -2.40625 C 1.195312 -2.414062 1.265625 -2.410156 1.328125 -2.390625 C 1.421875 -2.359375 1.484375 -2.296875 1.515625 -2.203125 C 1.546875 -2.117188 1.53125 -2.023438 1.46875 -1.921875 C 1.3125 -1.703125 1.101562 -1.578125 0.84375 -1.546875 C 0.675781 -1.523438 0.507812 -1.535156 0.34375 -1.578125 C 0.3125 -1.578125 0.285156 -1.566406 0.265625 -1.546875 C 0.242188 -1.523438 0.226562 -1.5 0.21875 -1.46875 C 0.175781 -1.269531 0.238281 -1.140625 0.40625 -1.078125 C 0.625 -1.003906 0.847656 -1.003906 1.078125 -1.078125 C 1.335938 -1.160156 1.585938 -1.316406 1.828125 -1.546875 C 2.066406 -1.773438 2.203125 -1.878906 2.234375 -1.859375 C 2.273438 -1.847656 2.285156 -1.804688 2.265625 -1.734375 C 2.234375 -1.617188 2.148438 -1.492188 2.015625 -1.359375 Z M 0.515625 -1.921875 C 0.492188 -1.910156 0.476562 -1.894531 0.46875 -1.875 C 0.46875 -1.851562 0.476562 -1.832031 0.5 -1.8125 C 0.582031 -1.769531 0.671875 -1.753906 0.765625 -1.765625 C 0.867188 -1.773438 0.953125 -1.8125 1.015625 -1.875 C 1.085938 -1.9375 1.117188 -2.007812 1.109375 -2.09375 C 1.097656 -2.125 1.078125 -2.144531 1.046875 -2.15625 C 1.023438 -2.164062 1.003906 -2.164062 0.984375 -2.15625 C 0.804688 -2.125 0.648438 -2.046875 0.515625 -1.921875 Z M 0.515625 -1.921875 "/></g></g></g><g fill="#000000" fill-opacity="1"><g transform="translate(50.745066, 17.00734)"><g><path d="M 0.53125 -1.421875 C 0.4375 -1.359375 0.390625 -1.3125 0.390625 -1.28125 C 0.390625 -1.257812 0.414062 -1.242188 0.46875 -1.234375 C 0.53125 -1.234375 0.597656 -1.234375 0.671875 -1.234375 C 0.691406 -1.234375 0.707031 -1.234375 0.71875 -1.234375 C 0.945312 -1.234375 1.164062 -1.203125 1.375 -1.140625 C 1.4375 -1.117188 1.492188 -1.09375 1.546875 -1.0625 C 1.554688 -1.050781 1.5625 -1.046875 1.5625 -1.046875 C 1.570312 -1.046875 1.578125 -1.035156 1.578125 -1.015625 C 1.585938 -1.003906 1.585938 -0.992188 1.578125 -0.984375 C 1.578125 -0.972656 1.570312 -0.960938 1.5625 -0.953125 C 1.550781 -0.941406 1.539062 -0.9375 1.53125 -0.9375 C 1.488281 -0.925781 1.445312 -0.921875 1.40625 -0.921875 C 0.96875 -0.972656 0.53125 -1 0.09375 -1 C 0.0078125 -1 -0.0703125 -1 -0.15625 -1 C -0.1875 -1 -0.21875 -0.992188 -0.25 -0.984375 C -0.3125 -0.984375 -0.367188 -0.988281 -0.421875 -1 C -0.472656 -1.007812 -0.507812 -1.046875 -0.53125 -1.109375 C -0.53125 -1.160156 -0.507812 -1.195312 -0.46875 -1.21875 C -0.4375 -1.25 -0.394531 -1.269531 -0.34375 -1.28125 C -0.3125 -1.289062 -0.28125 -1.304688 -0.25 -1.328125 C 0.113281 -1.535156 0.46875 -1.765625 0.8125 -2.015625 C 0.957031 -2.109375 1.082031 -2.222656 1.1875 -2.359375 C 1.21875 -2.398438 1.222656 -2.4375 1.203125 -2.46875 C 1.179688 -2.5 1.144531 -2.519531 1.09375 -2.53125 C 0.9375 -2.539062 0.78125 -2.523438 0.625 -2.484375 C 0.507812 -2.453125 0.394531 -2.425781 0.28125 -2.40625 C 0.226562 -2.394531 0.179688 -2.410156 0.140625 -2.453125 C 0.117188 -2.484375 0.113281 -2.507812 0.125 -2.53125 C 0.144531 -2.5625 0.179688 -2.585938 0.234375 -2.609375 C 0.566406 -2.753906 0.921875 -2.804688 1.296875 -2.765625 C 1.378906 -2.742188 1.460938 -2.71875 1.546875 -2.6875 C 1.691406 -2.601562 1.726562 -2.488281 1.65625 -2.34375 C 1.5625 -2.1875 1.4375 -2.054688 1.28125 -1.953125 C 1.082031 -1.804688 0.875 -1.660156 0.65625 -1.515625 C 0.613281 -1.484375 0.570312 -1.453125 0.53125 -1.421875 Z M 0.53125 -1.421875 "/></g></g></g><g fill="#000000" fill-opacity="1"><g transform="translate(53.598717, 17.00734)"><g><path d="M 2.5625 -1.796875 C 2.625 -1.765625 2.628906 -1.691406 2.578125 -1.578125 C 2.515625 -1.484375 2.441406 -1.394531 2.359375 -1.3125 C 2.285156 -1.238281 2.203125 -1.171875 2.109375 -1.109375 C 2.097656 -1.109375 2.09375 -1.109375 2.09375 -1.109375 C 2.03125 -1.066406 1.96875 -1.03125 1.90625 -1 C 1.34375 -0.789062 1.050781 -0.910156 1.03125 -1.359375 C 0.800781 -1.160156 0.648438 -1.035156 0.578125 -0.984375 C 0.390625 -0.878906 0.1875 -0.832031 -0.03125 -0.84375 C -0.1875 -0.851562 -0.289062 -0.898438 -0.34375 -0.984375 C -0.40625 -1.078125 -0.40625 -1.195312 -0.34375 -1.34375 C -0.238281 -1.582031 -0.0859375 -1.796875 0.109375 -1.984375 C 0.328125 -2.191406 0.570312 -2.359375 0.84375 -2.484375 C 0.988281 -2.554688 1.144531 -2.582031 1.3125 -2.5625 C 1.46875 -2.550781 1.5625 -2.460938 1.59375 -2.296875 C 1.613281 -2.242188 1.601562 -2.195312 1.5625 -2.15625 C 1.507812 -2.101562 1.445312 -2.09375 1.375 -2.125 C 1.375 -2.125 1.367188 -2.125 1.359375 -2.125 C 1.347656 -2.125 1.34375 -2.128906 1.34375 -2.140625 C 1.269531 -2.234375 1.195312 -2.269531 1.125 -2.25 C 1.0625 -2.238281 0.988281 -2.207031 0.90625 -2.15625 C 0.550781 -1.945312 0.285156 -1.65625 0.109375 -1.28125 C 0.0976562 -1.257812 0.0859375 -1.238281 0.078125 -1.21875 C 0.078125 -1.195312 0.0859375 -1.179688 0.109375 -1.171875 C 0.148438 -1.160156 0.195312 -1.160156 0.25 -1.171875 C 0.300781 -1.191406 0.351562 -1.222656 0.40625 -1.265625 C 0.457031 -1.304688 0.5 -1.335938 0.53125 -1.359375 C 0.53125 -1.367188 0.53125 -1.375 0.53125 -1.375 C 0.707031 -1.519531 0.878906 -1.664062 1.046875 -1.8125 C 1.117188 -1.894531 1.207031 -1.941406 1.3125 -1.953125 C 1.46875 -1.953125 1.535156 -1.878906 1.515625 -1.734375 C 1.492188 -1.679688 1.476562 -1.632812 1.46875 -1.59375 C 1.40625 -1.363281 1.398438 -1.226562 1.453125 -1.1875 C 1.515625 -1.15625 1.601562 -1.15625 1.71875 -1.1875 C 1.832031 -1.226562 1.945312 -1.300781 2.0625 -1.40625 C 2.1875 -1.519531 2.285156 -1.617188 2.359375 -1.703125 C 2.441406 -1.796875 2.507812 -1.828125 2.5625 -1.796875 Z M 2.5625 -1.796875 "/></g></g></g><g fill="#000000" fill-opacity="1"><g transform="translate(57.032847, 17.00734)"><g><path d="M 3.140625 -1.859375 C 3.191406 -1.847656 3.21875 -1.832031 3.21875 -1.8125 C 3.21875 -1.789062 3.21875 -1.78125 3.21875 -1.78125 C 3.164062 -1.675781 3.101562 -1.582031 3.03125 -1.5 C 2.863281 -1.3125 2.671875 -1.164062 2.453125 -1.0625 C 2.335938 -1 2.210938 -0.960938 2.078125 -0.953125 C 1.765625 -0.953125 1.617188 -1.109375 1.640625 -1.421875 C 1.648438 -1.484375 1.664062 -1.546875 1.6875 -1.609375 C 1.695312 -1.640625 1.707031 -1.671875 1.71875 -1.703125 C 1.75 -1.816406 1.753906 -1.878906 1.734375 -1.890625 C 1.722656 -1.898438 1.6875 -1.867188 1.625 -1.796875 C 1.613281 -1.785156 1.597656 -1.769531 1.578125 -1.75 C 1.484375 -1.632812 1.390625 -1.523438 1.296875 -1.421875 C 1.109375 -1.210938 0.898438 -1.035156 0.671875 -0.890625 C 0.523438 -0.804688 0.378906 -0.765625 0.234375 -0.765625 C -0.0234375 -0.753906 -0.171875 -0.867188 -0.203125 -1.109375 C -0.210938 -1.210938 -0.207031 -1.3125 -0.1875 -1.40625 C -0.0820312 -1.800781 0.125 -2.101562 0.4375 -2.3125 C 0.75 -2.53125 1.101562 -2.609375 1.5 -2.546875 C 1.613281 -2.515625 1.695312 -2.546875 1.75 -2.640625 C 1.769531 -2.671875 1.789062 -2.707031 1.8125 -2.75 C 1.925781 -2.9375 2.035156 -3.125 2.140625 -3.3125 C 2.328125 -3.664062 2.519531 -4.023438 2.71875 -4.390625 C 2.882812 -4.671875 3.046875 -4.957031 3.203125 -5.25 C 3.253906 -5.34375 3.304688 -5.429688 3.359375 -5.515625 C 3.390625 -5.554688 3.421875 -5.578125 3.453125 -5.578125 C 3.492188 -5.585938 3.535156 -5.59375 3.578125 -5.59375 C 3.585938 -5.59375 3.597656 -5.59375 3.609375 -5.59375 C 3.660156 -5.59375 3.695312 -5.582031 3.71875 -5.5625 C 3.75 -5.539062 3.757812 -5.507812 3.75 -5.46875 C 3.71875 -5.363281 3.679688 -5.269531 3.640625 -5.1875 C 3.421875 -4.75 3.210938 -4.304688 3.015625 -3.859375 C 2.828125 -3.421875 2.640625 -2.972656 2.453125 -2.515625 C 2.390625 -2.359375 2.328125 -2.203125 2.265625 -2.046875 C 2.191406 -1.867188 2.128906 -1.6875 2.078125 -1.5 C 2.054688 -1.457031 2.046875 -1.414062 2.046875 -1.375 C 2.046875 -1.332031 2.066406 -1.296875 2.109375 -1.265625 C 2.140625 -1.242188 2.164062 -1.238281 2.1875 -1.25 C 2.21875 -1.257812 2.25 -1.269531 2.28125 -1.28125 C 2.289062 -1.289062 2.296875 -1.300781 2.296875 -1.3125 C 2.523438 -1.4375 2.734375 -1.59375 2.921875 -1.78125 C 2.953125 -1.800781 2.984375 -1.820312 3.015625 -1.84375 C 3.046875 -1.875 3.085938 -1.878906 3.140625 -1.859375 Z M 1.390625 -2.09375 C 1.421875 -2.132812 1.429688 -2.171875 1.421875 -2.203125 C 1.410156 -2.242188 1.382812 -2.273438 1.34375 -2.296875 C 1.25 -2.347656 1.15625 -2.351562 1.0625 -2.3125 C 0.8125 -2.238281 0.601562 -2.097656 0.4375 -1.890625 C 0.28125 -1.691406 0.195312 -1.46875 0.1875 -1.21875 C 0.1875 -1.207031 0.1875 -1.203125 0.1875 -1.203125 C 0.1875 -1.179688 0.1875 -1.160156 0.1875 -1.140625 C 0.207031 -1.023438 0.273438 -1 0.390625 -1.0625 C 0.515625 -1.132812 0.648438 -1.25 0.796875 -1.40625 C 0.941406 -1.5625 1.070312 -1.707031 1.1875 -1.84375 C 1.3125 -1.988281 1.378906 -2.070312 1.390625 -2.09375 Z M 1.390625 -2.09375 "/></g></g></g><g fill="#000000" fill-opacity="1"><g transform="translate(61.079306, 17.00734)"><g><path d="M 2.5625 -1.796875 C 2.625 -1.765625 2.628906 -1.691406 2.578125 -1.578125 C 2.515625 -1.484375 2.441406 -1.394531 2.359375 -1.3125 C 2.285156 -1.238281 2.203125 -1.171875 2.109375 -1.109375 C 2.097656 -1.109375 2.09375 -1.109375 2.09375 -1.109375 C 2.03125 -1.066406 1.96875 -1.03125 1.90625 -1 C 1.34375 -0.789062 1.050781 -0.910156 1.03125 -1.359375 C 0.800781 -1.160156 0.648438 -1.035156 0.578125 -0.984375 C 0.390625 -0.878906 0.1875 -0.832031 -0.03125 -0.84375 C -0.1875 -0.851562 -0.289062 -0.898438 -0.34375 -0.984375 C -0.40625 -1.078125 -0.40625 -1.195312 -0.34375 -1.34375 C -0.238281 -1.582031 -0.0859375 -1.796875 0.109375 -1.984375 C 0.328125 -2.191406 0.570312 -2.359375 0.84375 -2.484375 C 0.988281 -2.554688 1.144531 -2.582031 1.3125 -2.5625 C 1.46875 -2.550781 1.5625 -2.460938 1.59375 -2.296875 C 1.613281 -2.242188 1.601562 -2.195312 1.5625 -2.15625 C 1.507812 -2.101562 1.445312 -2.09375 1.375 -2.125 C 1.375 -2.125 1.367188 -2.125 1.359375 -2.125 C 1.347656 -2.125 1.34375 -2.128906 1.34375 -2.140625 C 1.269531 -2.234375 1.195312 -2.269531 1.125 -2.25 C 1.0625 -2.238281 0.988281 -2.207031 0.90625 -2.15625 C 0.550781 -1.945312 0.285156 -1.65625 0.109375 -1.28125 C 0.0976562 -1.257812 0.0859375 -1.238281 0.078125 -1.21875 C 0.078125 -1.195312 0.0859375 -1.179688 0.109375 -1.171875 C 0.148438 -1.160156 0.195312 -1.160156 0.25 -1.171875 C 0.300781 -1.191406 0.351562 -1.222656 0.40625 -1.265625 C 0.457031 -1.304688 0.5 -1.335938 0.53125 -1.359375 C 0.53125 -1.367188 0.53125 -1.375 0.53125 -1.375 C 0.707031 -1.519531 0.878906 -1.664062 1.046875 -1.8125 C 1.117188 -1.894531 1.207031 -1.941406 1.3125 -1.953125 C 1.46875 -1.953125 1.535156 -1.878906 1.515625 -1.734375 C 1.492188 -1.679688 1.476562 -1.632812 1.46875 -1.59375 C 1.40625 -1.363281 1.398438 -1.226562 1.453125 -1.1875 C 1.515625 -1.15625 1.601562 -1.15625 1.71875 -1.1875 C 1.832031 -1.226562 1.945312 -1.300781 2.0625 -1.40625 C 2.1875 -1.519531 2.285156 -1.617188 2.359375 -1.703125 C 2.441406 -1.796875 2.507812 -1.828125 2.5625 -1.796875 Z M 2.5625 -1.796875 "/></g></g></g></svg>